<?xml version="1.0" standalone="no"?><!DOCTYPE svg PUBLIC "-//W3C//DTD SVG 1.1//EN" "http://www.w3.org/Graphics/SVG/1.1/DTD/svg11.dtd"><svg t="1751162430315" class="icon" viewBox="0 0 1024 1024" version="1.1" xmlns="http://www.w3.org/2000/svg" p-id="21345" xmlns:xlink="http://www.w3.org/1999/xlink" width="32" height="32"><path d="M559.978667 252.629333c0.106667 19.626667 0.064 39.232-0.021334 58.858667-0.021333 5.034667-0.192 10.048 0.512 15.061333 0.277333 1.92 0.085333 3.925333-0.170666 5.866667-0.384 3.008-0.362667 5.930667 0.618666 8.853333 0.96 2.794667 0.618667 5.738667 0.704 8.64 0.213333 6.954667 3.370667 11.328 9.877334 13.738667 1.258667 0.469333 2.346667 0.298667 3.328-0.554667 2.048-1.792 3.989333-3.584 5.504-5.973333 1.941333-3.072 4.330667-5.909333 6.848-8.554667 4.352-4.586667 8.426667-9.322667 11.690666-14.805333 1.770667-2.965333 4.8-5.034667 6.656-8.042667 2.944-4.8 7.744-8.234667 10.346667-13.226666 3.050667-5.888 7.872-10.410667 11.562667-15.829334 3.712-5.461333 7.509333-10.944 11.178666-16.426666 3.925333-5.888 8.064-11.648 11.648-17.813334 4.032-6.890667 7.530667-14.122667 12.181334-20.714666 2.986667-4.224 5.056-9.194667 7.445333-13.888 4.437333-8.746667 7.530667-18.026667 11.541333-26.922667 2.368-5.248 2.709333-10.901333 4.458667-16.213333 1.514667-4.586667 3.733333-8.938667 3.989333-13.930667 0.128-2.517333 3.754667-3.392 6.186667-1.514667 3.306667 2.581333 7.274667 4.074667 10.538667 6.656 4.074667 3.242667 7.594667 7.04 11.029333 10.965334 3.178667 3.626667 5.226667 7.936 8.064 11.776 1.962667 2.645333 1.706667 5.717333-0.362667 8.768-5.674667 8.362667-11.733333 16.490667-17.792 24.533333-4.181333 5.568-8.106667 11.328-12.245333 16.917333-3.712 5.013333-7.936 9.728-10.794667 15.424-1.322667 2.624-3.84 4.693333-5.482666 7.296-2.304 3.669333-5.696 6.570667-7.488 10.581334-1.045333 2.346667-3.306667 3.605333-4.757334 5.589333-4.245333 5.802667-7.530667 12.266667-12.565333 17.557333-2.026667 2.112-3.456 4.864-4.864 7.466667-3.434667 6.336-9.173333 10.922667-12.757333 17.109333-3.626667 6.272-9.045333 11.2-12.522667 17.621334-2.282667 4.202667-5.589333 7.872-8.704 11.562666-3.178667 3.797333-5.333333 8.256-8.32 12.16-2.56 3.392-5.248 6.677333-7.744 10.133334-3.882667 5.354667-7.573333 10.858667-11.456 16.213333-3.029333 4.181333-6.336 8.192-9.344 12.394667-3.434667 4.8-8 8.874667-9.6 14.890666-0.384 1.408-0.725333 2.816-0.618667 4.288 0.597333 7.253333-0.106667 14.464-0.469333 21.696-0.192 4.202667 3.733333 8.661333 8.213333 9.301334 0.682667 0.106667 1.408 0.256 2.026667 0.106666 6.336-1.557333 13.056-1.706667 19.008-4.714666 2.922667-1.472 5.824-2.218667 9.066667-2.069334 4.266667 0.213333 8.298667-0.469333 11.712-3.434666 1.109333-0.96 2.624-1.173333 4.117333-1.066667 5.589333 0.384 10.816-0.533333 15.573333-3.818667 2.24-1.536 5.162667-1.045333 7.765334-1.109333 4.117333-0.085333 7.957333-0.789333 11.285333-3.392 1.002667-0.789333 2.24-0.768 3.434667-0.789333 5.525333-0.064 10.88-0.832 15.850666-3.434667 2.389333-1.258667 5.013333-1.6 7.68-1.706667 3.797333-0.149333 7.381333-0.96 10.709334-3.008 2.304-1.408 5.034667-1.493333 7.68-1.642666 2.218667-0.128 4.437333-0.234667 6.634666-0.469334 1.002667-0.106667 2.261333-0.213333 2.901334-0.853333 3.989333-3.861333 9.066667-3.392 13.952-3.712 2.432-0.149333 4.757333-0.618667 6.698666-2.176 2.730667-2.197333 6.037333-2.325333 9.237334-2.410667 9.024-0.256 18.048-1.152 27.093333-0.298666 1.728 0.170667 3.136 0.661333 4.245333 1.984 3.285333 3.904 7.125333 7.317333 10.581334 11.050666 3.264 3.498667 6.613333 7.210667 7.658666 12.117334 1.173333 5.482667-2.496 10.154667-8.213333 9.728-8.064-0.597333-15.978667 0.981333-23.978667 1.088-1.472 0.021333-3.029333 0.128-4.224 0.917333-4.288 2.816-9.088 3.221333-13.973333 3.093333-5.013333-0.128-9.6 1.109333-13.802667 3.904-1.578667 1.045333-3.434667 0.917333-5.226666 0.896-3.264-0.064-6.485333 0.128-9.664 0.896-1.344 0.32-2.730667 0.725333-3.669334 1.706667-2.005333 2.048-4.48 2.325333-7.082666 2.133333-5.397333-0.384-10.56 0.192-15.253334 3.2-1.92 1.237333-4.096 1.536-6.357333 1.664-4.501333 0.234667-8.96 0.618667-12.906667 3.370667-2.368 1.642667-5.397333 1.472-8.192 1.6-2.88 0.149333-5.504 0.853333-7.893333 2.581333-2.112 1.536-4.736 1.301333-7.168 1.578667-3.605333 0.405333-6.954667 1.152-10.048 3.285333-2.496 1.706667-5.632 1.834667-8.64 1.898667-3.456 0.064-6.784 0.469333-9.642667 2.752-1.749333 1.408-3.968 1.408-6.122666 1.386667-4.181333-0.042667-8.106667 0.490667-11.477334 3.413333-1.984 1.706667-4.672 1.536-7.104 1.642667-4.032 0.170667-7.317333 1.472-10.154666 4.522666-4.138667 4.458667-4.608 9.322667 0.149333 13.290667 3.498667 2.922667 6.037333 6.421333 8.597333 9.984 3.605333 5.013333 7.957333 9.301333 12.245334 13.696 1.429333 1.450667 2.794667 2.986667 4.096 4.544 3.2 3.818667 7.488 6.336 11.178666 9.578667a638.293333 638.293333 0 0 0 19.242667 16.362666c5.056 4.117333 10.410667 7.850667 15.573333 11.861334 2.88 2.24 5.610667 4.672 8.405334 7.018666 0.512 0.426667 1.024 0.981333 1.621333 1.216 7.082667 2.773333 12.437333 8.170667 18.666667 12.245334 3.904 2.538667 7.744 5.162667 11.690666 7.616 3.221333 2.005333 6.506667 3.925333 9.642667 6.08 3.690667 2.517333 7.274667 5.248 11.328 7.189333 0.384 0.192 0.810667 0.362667 1.088 0.661333 3.242667 3.754667 8.298667 4.629333 12.053333 7.552 4.608 3.584 9.92 6.08 14.848 9.194667 4.8 3.050667 9.578667 6.912 15.872 7.018667 1.813333 0.021333 3.306667 1.322667 4.992 1.877333 8.128 2.752 16.170667 5.738667 24.64 7.509333 4.778667 1.002667 9.237333 3.434667 13.973334 4.8 6.272 1.792 12.181333 4.714667 18.858666 5.397334 3.328 0.341333 6.421333 2.624 9.685334 3.84 7.893333 2.944 16 5.248 24.064 7.744 4.949333 1.536 9.728 3.605333 14.848 4.650666 1.066667 0.213333 2.154667 0.661333 3.050666 1.258667 2.368 1.578667 4.928 2.282667 7.722667 2.304 2.474667 0 4.693333 0.597333 6.592 2.325333 1.834667 1.664 4.074667 2.389333 6.592 2.346667 3.264-0.064 6.186667 0.746667 8.618667 3.2 1.770667 1.770667 4.288 1.514667 6.549333 1.706667 3.008 0.277333 5.781333 0.704 8.298667 2.773333 2.005333 1.664 4.778667 1.728 7.317333 1.898667 3.136 0.213333 6.037333 0.810667 8.405333 3.178666 1.344 1.344 3.306667 1.28 5.077334 1.322667 3.626667 0.106667 7.061333 0.256 9.898666 3.157333 1.578667 1.6 4.053333 1.749333 6.250667 1.962667 1.856 0.170667 3.221333 0.96 4.352 2.346667 3.562667 4.373333 6.485333 9.173333 9.386667 13.994666 1.536 2.56 3.008 5.12 4.885333 7.466667 2.218667 2.773333 1.493333 4.586667-1.898667 5.525333-5.589333 1.536-11.157333 1.6-16.938666 1.066667-10.773333-0.981333-21.589333-1.066667-32.448-0.704-13.888 0.469333-27.818667 0.192-41.728 0.192-5.376 0-10.773333-0.362667-16.128 0-9.408 0.618667-18.154667-1.685333-27.072-4.288-5.546667-1.621333-10.666667-4.330667-16.32-5.653333-3.285333-0.768-6.314667-2.901333-9.301334-4.693334-1.557333-0.938667-3.072-1.792-4.821333-2.197333-1.941333-0.448-3.669333-1.301333-5.141333-2.709333-1.045333-1.024-2.304-1.728-3.776-2.026667-1.770667-0.362667-3.349333-1.130667-4.672-2.474667-1.152-1.173333-2.752-1.685333-4.245334-2.304-0.618667-0.256-1.344-0.405333-1.877333-0.789333-5.888-4.501333-12.714667-7.424-18.986667-11.264a510.677333 510.677333 0 0 1-17.706666-11.413333c-5.077333-3.392-10.666667-5.973333-15.530667-9.557334-3.050667-2.261333-6.144-4.586667-9.322667-6.613333-3.456-2.197333-6.4-5.034667-9.984-6.997333-1.216-0.661333-2.346667-1.386667-3.285333-2.389334-1.130667-1.216-2.56-1.877333-4.138667-2.389333-5.610667-1.834667-10.837333-4.522667-15.808-7.68-2.773333-1.749333-4.501333-4.629333-6.549333-7.061333-5.376-6.4-11.456-12.117333-16.96-18.346667-4.330667-4.906667-9.258667-9.173333-13.568-14.101333-5.141333-5.866667-11.008-11.114667-16.576-16.618667-3.818667-3.776-7.168-8.042667-11.498667-11.242667-4.906667-3.626667-9.344-7.829333-14.186666-11.562666-5.184-3.968-10.581333-7.722667-15.253334-12.330667-2.773333-2.730667-6.613333-2.986667-9.92-4.437333-7.914667-3.456-16.277333-2.261333-24.512-1.941334-3.968 0.170667-8.213333 5.290667-8.277333 9.834667-0.128 8.256-1.002667 16.490667-0.405333 24.789333 0.576 8.064 0.021333 16.192-0.554667 24.277334-0.170667 2.218667-0.256 4.437333 0 6.634666 1.344 12.416 1.194667 24.853333 0.554667 37.312-0.192 3.925333 0.853333 7.829333 0.341333 11.754667-1.173333 9.109333-0.448 18.282667-0.170667 27.328 0.341333 12.010667 0.341333 24.021333 0.448 36.053333 0.085333 9.365333-0.213333 18.730667-0.192 28.096 0.021333 10.325333 0.213333 20.629333 0.362667 30.954667 0.042667 2.304 1.301333 3.178667 3.562667 2.624 0.917333-0.234667 1.813333-0.597333 2.474666-1.28 3.797333-4.010667 8.277333-7.296 12.416-10.901333 6.464-5.610667 11.946667-12.117333 18.325334-17.749334 9.770667-8.618667 18.474667-18.325333 27.797333-27.413333 7.872-7.68 15.402667-15.658667 23.082667-23.509333 5.418667-5.546667 11.114667-10.837333 16.021333-16.832 2.56-3.114667 5.333333-6.101333 7.594667-9.536 2.133333-3.221333 5.653333-5.141333 8.32-7.872 2.709333-2.752 5.973333-4.16 9.578666-5.034667 2.368-0.576 3.349333 0.298667 2.602667 2.645333-0.64 1.92-1.493333 3.818667-2.581333 5.546667-3.52 5.632-5.973333 11.84-9.621334 17.408-1.429333 2.176-2.261333 4.736-3.605333 7.018667-4.629333 7.744-10.133333 14.869333-15.125333 22.357333-1.728 2.602667-4.053333 4.8-5.952 7.338667-4.544 6.058667-9.472 11.818667-14.058667 17.834666-6.485333 8.512-13.973333 16.234667-20.373333 24.832-2.730667 3.669333-6.4 6.549333-9.365334 10.069334-6.016 7.189333-11.84 14.506667-17.578666 21.909333-2.773333 3.584-6.656 6.058667-9.578667 9.536-3.392 4.032-7.104 7.829333-10.624 11.776-1.536 1.728-3.456 3.072-4.928 4.821333-5.909333 7.04-12.330667 13.610667-18.026667 20.842667-1.941333 2.453333-4.352 4.544-6.592 6.762667-1.514667 1.514667-2.986667 3.029333-4.245333 4.757333-1.301333 1.749333-2.944 2.666667-5.269333 2.453333-3.306667-0.298667-6.634667-0.405333-9.962667-0.490666-3.541333-0.106667-5.461333-2.24-7.018667-5.12-4.117333-7.616-5.653333-15.616-3.925333-24.192 1.770667-8.789333 2.517333-17.685333 2.922667-26.666667 0.405333-8.533333 4.032-16.512 5.226666-24.981333 1.749333-12.266667 3.178667-24.512 3.242667-36.928 0.064-14.08-0.042667-28.138667 0.874667-42.197334 0.277333-4.181333 0.192-8.362667-0.256-12.522666-0.256-2.56-0.192-5.12 0.064-7.658667 0.512-5.013333 0.874667-10.026667 0.746666-15.082667-0.106667-4.522667-0.128-9.002667 1.216-13.44 0.746667-2.453333 0.362667-5.077333 0.32-7.637333-0.128-9.642667 0.256-19.242667 0.853334-28.864 0.554667-8.682667 0.661333-17.386667 0.810666-26.090667 0.192-10.666667 0.554667-21.333333 0.234667-31.978666-0.277333-8.832-0.234667-17.749333-2.56-26.410667-0.661333-2.432-0.106667-4.757333 0.917333-6.976 0.96-2.112 1.258667-4.288 0.810667-6.506667-0.64-3.221333-0.618667-6.421333-0.512-9.685333 0.128-4.245333-2.005333-6.677333-6.272-7.274667-1.685333-0.234667-3.413333-0.512-5.098667-0.384-8.426667 0.597333-16.896-0.512-25.301333 0.405334-8.874667 0.96-13.824-5.824-15.296-12.778667-1.173333-5.568-0.874667-11.392 1.408-16.853333 2.069333-4.928 5.504-7.893333 11.136-7.765334 2.837333 0.064 5.568-0.512 8.256-1.493333 3.989333-1.472 8.213333-1.386667 12.394667-1.472 5.461333-0.085333 10.88-0.256 16.213333-1.728 4.224-1.173333 6.165333-3.989333 6.741333-8.042667 0.533333-3.669333 0.32-7.338667-0.064-10.986666-0.448-4.096-0.469333-8.149333-0.256-12.245334 0.448-8.874667-0.192-17.749333 0-26.602666 0.170667-8.192 0.448-16.384 0.106667-24.554667-0.384-9.045333 0.277333-18.069333 0.234667-27.093333-0.021333-7.381333 0.512-14.826667-0.597334-22.229334-0.746667-4.949333 0.170667-9.92 0.853334-14.762666 0.533333-3.776 0.725333-7.424 0.170666-11.157334-0.170667-1.088-0.448-2.197333-0.448-3.285333 0.021333-13.824-0.597333-27.626667 0.085334-41.450667 0.106667-1.962667 0.448-3.925333 0.341333-5.866666-0.554667-9.856 0.576-19.754667-0.810667-29.632-0.597333-4.288 0.384-8.810667-0.170666-13.248-0.32-2.496-0.789333-4.842667-2.453334-6.869334a10.325333 10.325333 0 0 1-2.133333-4.330666c-0.832-3.306667-1.962667-6.528-3.285333-9.685334-1.088-2.56-1.557333-5.226667-1.472-8 0.128-4.970667-0.725333-9.834667-1.642667-14.72-0.981333-5.248-2.112-10.517333-0.469333-15.893333 0.64-2.069333 0.170667-4.224-0.682667-6.250667-0.896-2.197333-1.770667-4.416-2.069333-6.826666-0.170667-1.386667 0.256-2.517333 0.853333-3.648 0.704-1.28 2.133333-1.408 2.709333-0.405334 3.157333 5.461333 8.682667 4.352 13.461334 4.821334 2.922667 0.277333 5.504 0.405333 8.064 2.304 2.901333 2.133333 6.314667 3.477333 9.194666 5.866666 5.376 4.458667 8.512 10.261333 11.52 16.298667 3.157333 6.336 3.349333 13.098667 3.584 19.925333 0.554667 15.957333 0.597333 31.893333 0.384 47.850667 0.042667 3.648 0.085333 7.317333 0.085334 10.965333zM354.858667 672.384c-0.021333-6.037333-0.704-11.818667 1.344-16.981333 3.712-9.386667 3.221333-19.072 3.264-28.757334 0.042667-10.666667 0.042667-21.333333 0.085333-32 0.021333-3.562667-0.170667-6.976-3.264-9.536-1.045333-0.874667-1.344-2.304-1.365333-3.754666-0.064-4.352-0.149333-8.704-0.256-13.056-0.149333-6.016-5.845333-10.730667-11.776-10.026667-3.328 0.405333-5.973333 2.410667-9.024 3.413333-5.098667 1.664-9.557333 4.693333-14.741334 6.314667-3.264 1.002667-6.506667 2.730667-9.621333 4.245333-3.498667 1.728-7.104 3.349333-10.517333 5.205334-2.837333 1.557333-5.568 3.008-8.704 3.84-1.386667 0.362667-2.432 1.706667-3.712 2.176-5.141333 1.898667-9.792 4.842667-14.933334 6.634666-1.728 0.597333-3.413333 0.981333-4.672 2.346667-1.408 1.536-3.2 2.261333-5.205333 2.432-1.792 0.149333-3.242667 0.96-4.586667 2.048-0.597333 0.490667-1.130667 1.237333-1.813333 1.386667-5.994667 1.322667-10.858667 5.290667-16.725333 6.912-1.344 0.362667-2.538667 0.938667-3.605334 1.834666-1.130667 0.96-2.410667 1.514667-3.925333 1.749334-0.896 0.128-1.962667 0.384-2.602667 0.96-2.624 2.410667-5.909333 3.136-9.130666 4.245333-2.922667 1.002667-5.674667 2.688-8.384 4.181333-6.869333 3.797333-14.634667 5.653333-21.184 10.069334-2.24 1.514667-4.714667 1.450667-7.061334 0.32-2.410667-1.173333-2.730667-3.392-2.666666-5.866667 0.128-5.141333 0.341333-10.538667-3.178667-14.634667-2.261333-2.624-2.176-5.269333-2.24-8.170666-0.042667-1.792 0.042667-3.584-0.064-5.376-0.128-2.218667 0.298667-3.818667 2.325333-5.376 2.666667-2.048 4.736-5.013333 6.186667-8.021334 2.389333-4.928 5.994667-9.066667 8.362667-13.994666 2.197333-4.586667 5.034667-8.896 7.658666-13.248 4.821333-7.914667 8.725333-16.384 14.058667-23.978667 2.069333-2.965333 2.965333-6.165333 2.752-9.642667-0.213333-3.797333 0.704-6.805333 4.074667-8.981333 3.52-2.282667 4.885333-5.888 6.442666-9.728 1.92-4.778667 2.496-9.941333 4.629334-14.464 2.026667-4.288 3.050667-8.597333 3.605333-13.162667 0.106667-0.896 0.512-1.834667 0.981333-2.624 3.882667-6.314667 3.306667-13.44 3.733334-20.373333 0.085333-1.536-0.704-2.794667-1.898667-3.754667-2.304-1.834667-4.778667-3.413333-7.296-4.992-3.669333-2.282667-7.936-3.434667-11.306667-6.208-0.917333-0.746667-2.005333-1.322667-3.093333-1.792-5.013333-2.197333-6.869333-5.589333-6.144-11.114666 0.170667-1.344 0.192-2.730667 0.085333-4.074667-0.405333-5.738667 3.434667-10.986667 9.088-12.16 1.664-0.341333 3.370667-0.661333 5.056-0.661333 2.517333-0.021333 4.672-0.576 6.464-2.474667 0.96-1.002667 2.346667-1.408 3.669334-1.706667 1.237333-0.298667 2.624-0.213333 3.754666-0.704 6.208-2.709333 12.949333-3.904 19.029334-6.933333 0.768-0.384 1.472-0.874667 2.282666-1.152 10.154667-3.456 19.562667-8.618667 29.184-13.226667 5.141333-2.474667 9.301333-6.528 14.058667-9.664 5.952-3.904 11.434667-8.490667 17.258667-12.586666 6.72-4.714667 11.669333-11.072 17.045333-17.088 4.266667-4.778667 8-10.005333 11.413333-15.296 2.56-3.946667 5.333333-7.936 6.954667-12.650667 1.642667-4.8 5.098667-8.981333 5.418667-14.357333 4.693333-6.08 4.074667-13.354667 4.416-20.352 0.170667-3.306667 0.512-6.378667 2.154666-9.344 1.429333-2.581333 1.642667-5.525333 1.642667-8.469334 0-4.266667-0.085333-8.512 0.405333-12.778666 0.768-6.784-2.069333-9.216-9.344-10.346667-3.136-0.490667-6.186667 0.298667-9.237333 1.429333-5.824 2.133333-11.669333 4.352-18.112 3.733334-6.485333-0.618667-12.672 1.301333-18.858667 2.901333-3.925333 1.024-7.893333 1.322667-11.925333 1.066667-3.349333-0.213333-6.613333 0.106667-9.856 1.109333-8.32 2.602667-16.832 4.245333-25.6 4.501333-2.56 0.064-5.077333 0.576-7.552 1.301334-1.002667 0.298667-2.090667 0.576-2.773333-0.490667-0.682667-1.045333-0.064-1.984 0.554666-2.816 1.685333-2.282667 3.349333-4.522667 6.634667-4.608 1.173333-0.021333 2.368-0.533333 3.242667-1.408 3.413333-3.349333 8.149333-4.394667 12.010666-7.018667 4.032-2.730667 8.533333-4.757333 12.288-7.936 0.512-0.448 1.045333-1.045333 1.642667-1.173333 4.010667-0.917333 7.104-3.648 10.496-5.653333 3.456-2.048 6.976-4.074667 10.325333-6.336 1.557333-1.045333 3.072-2.133333 4.928-2.645334 0.405333-0.106667 0.938667-0.170667 1.173334-0.448 2.858667-3.178667 7.381333-3.861333 10.304-6.912 0.725333-0.768 1.664-1.173333 2.666666-1.429333a10.218667 10.218667 0 0 0 3.434667-1.642667c4.16-3.114667 8.725333-5.546667 13.418667-7.744 1.322667-0.618667 2.517333-1.450667 3.584-2.432 0.576-0.512 1.088-1.237333 1.749333-1.472 5.952-2.026667 10.538667-6.464 16.213333-8.981333 2.858667-1.28 5.632-1.664 8.682667-0.832 4.032 1.109333 8.149333 2.389333 12.288 2.368 9.130667-0.042667 15.488 5.568 22.506667 10.026667 5.034667 3.2 8.192 8.149333 12.032 12.437333 1.749333 1.962667 2.666667 4.714667 3.818666 7.189333 0.32 0.704 0.341333 1.749333 0.085334 2.496-1.152 3.562667-2.410667 7.104-4.522667 10.24-1.109333 1.642667-2.282667 3.178667-2.581333 5.205334-0.064 0.405333-0.149333 0.896-0.405334 1.194666-3.434667 4.373333-3.989333 10.282667-7.616 14.570667-0.277333 0.32-0.533333 0.725333-0.597333 1.130667-0.704 5.824-4.010667 10.666667-6.4 15.744-2.389333 5.141333-3.498667 10.837333-6.784 15.594666-1.386667 2.005333-1.301333 4.565333-1.514667 6.933334a13.397333 13.397333 0 0 1-2.176 6.208c-1.92 2.922667-3.008 6.058667-2.816 9.642666 0.170667 3.733333-0.618667 7.274667-2.709333 10.496-0.405333 0.64-0.725333 1.386667-0.874667 2.112-1.28 6.250667-1.408 12.522667-0.277333 18.794667 0.149333 0.810667 0.362667 1.856 0.917333 2.346667 2.773333 2.410667 2.858667 5.482667 2.709334 8.832-0.128 2.944 0.917333 5.717333 2.517333 8.213333 2.090667 3.264 3.114667 6.762667 2.858667 10.666667-0.149333 2.474667-1.344 4.266667-3.456 5.312-6.848 3.370667-13.482667 7.210667-20.672 9.834666-1.408 0.512-2.346667 1.898667-3.605334 2.325334-4.501333 1.536-8.469333 4.117333-12.736 6.058666-2.581333 1.173333-5.568 1.450667-7.658666 3.712-0.32 0.362667-0.853333 0.661333-1.344 0.725334-4.266667 0.64-7.893333 2.794667-11.776 4.437333-5.930667 2.517333-11.605333 5.461333-17.408 8.192-1.002667 0.469333-1.984 0.981333-3.093334 1.173333-2.645333 0.469333-4.864 1.749333-7.168 3.114667-4.117333 2.453333-8.618667 4.309333-12.928 6.442667-2.944 1.450667-6.058667 2.922667-9.088 4.032-4.501333 1.621333-8.533333 4.224-13.077333 5.610666-3.904 1.194667-7.210667 3.456-10.496 5.738667-1.024 0.704-2.005333 1.728-2.538667 2.837333-2.496 5.354667-4.949333 10.965333-4.501333 16.853334 0.426667 5.504-0.618667 10.56-2.261333 15.530666-1.898667 5.781333-2.304 11.690667-2.645334 17.642667-0.149333 2.346667-0.554667 4.544-1.514666 6.677333-2.666667 5.802667-4.074667 11.754667-2.197334 18.133334 0.576 1.941333-0.405333 3.648-1.173333 5.376-1.557333 3.541333-2.090667 6.997333 0.682667 10.325333 1.706667 2.048 4.032 2.389333 6.421333 2.645333 2.88 0.32 6.144-0.277333 8.448 1.536 6.592 5.098667 13.888 4.202667 21.290667 3.242667 1.621333-0.213333 3.328-0.448 4.565333-1.493333 3.498667-2.922667 7.701333-2.88 11.861333-3.072 1.962667-0.085333 3.925333-0.106667 5.888-0.234667 1.664-0.106667 3.2-0.725333 4.352-1.941333 2.069333-2.176 4.629333-2.709333 7.466667-2.602667 3.392 0.128 6.784 0.533333 10.197333-0.192 2.666667-0.576 4.693333-1.813333 6.122667-4.181333 1.429333-2.410667 3.541333-3.477333 6.4-4.032 8.512-1.685333 17.301333-0.554667 25.685333-2.474667 6.144-1.386667 11.072-0.490667 15.68 3.712 1.258667 1.152 3.221333 1.514667 4.778667 2.389333 1.856 1.024 2.837333 2.56 2.496 4.842667-0.725333 5.098667-0.554667 10.154667 0.213333 15.274667 0.789333 5.290667-0.426667 10.688 0.149334 16.085333 1.173333 11.136 0.661333 22.4-0.149334 33.493333-1.301333 18.069333-0.896 36.138667-1.365333 54.208-0.106667 4.245333 0.32 8.512 0.490667 12.778667 0.085333 2.218667-0.533333 4.181333-1.877334 5.973333-1.664 2.261333-2.389333 4.949333-2.56 7.68-0.448 7.488-1.194667 14.976-1.088 22.485334 0.021333 2.005333-0.362667 3.882667-1.194666 5.696-2.816 6.186667-4.032 12.629333-3.093334 19.434666 0.256 1.813333 0.106667 3.626667-1.045333 5.141334-2.794667 3.712-3.648 8.042667-3.882667 12.522666-0.192 3.52-0.832 6.869333-2.496 10.048-1.6 3.029333-2.624 6.272-2.752 9.770667-0.064 1.792-0.981333 3.413333-1.578666 5.098667-2.048 5.866667-3.84 11.84-5.973334 17.664-2.218667 6.08-4.650667 12.074667-7.168 18.026666-2.517333 5.973333-5.546667 11.690667-8.042666 17.664-1.706667 4.074667-3.861333 7.914667-6.08 11.754667-2.218667 3.861333-4.48 7.765333-6.485334 11.797333-1.728 3.52-3.754667 6.869333-6.229333 9.92-2.709333 3.306667-3.989333 7.488-6.762667 10.773334-2.56 3.029333-4.949333 6.208-7.381333 9.365333-1.962667 2.581333-3.882667 5.184-5.76 7.808-2.602667 3.690667-4.202667 3.669333-7.658667 0.896-4.373333-3.498667-8.832-6.826667-12.864-10.752-5.269333-5.12-8.896-11.157333-11.221333-18.026667-0.746667-2.176-1.344-4.394667-3.008-6.144-1.109333-1.152-1.472-2.624-1.450667-4.245333 0.042667-2.474667-0.106667-4.949333-0.106666-7.424 0-3.413333-0.810667-6.613333-2.645334-9.493333-1.877333-2.922667-2.069333-6.122667-1.749333-9.365334 0.298667-3.136 1.962667-3.882667 4.650667-2.282666 2.602667 1.536 5.525333 1.6 8.405333 1.877333 1.536 0.149333 3.072 0.106667 4.608 0.149333 4.629333 0.149333 9.066667 0.704 13.312 2.986667 6.101333 3.306667 9.898667 1.429333 13.866667-5.098667 5.056-8.298667 7.232-18.026667 12.778666-26.133333 0.597333-0.874667 0.725333-2.090667 1.024-3.136 0.085333-0.32 0.021333-0.704 0.149334-1.002667 2.453333-6.293333 4.842667-12.629333 7.466666-18.858666 0.704-1.664 1.514667-3.2 1.6-5.034667 0.149333-3.136 0.917333-6.037333 3.029334-8.512 1.258667-1.472 1.706667-3.306667 1.642666-5.269333-0.149333-4.288 0.533333-8.277333 3.370667-11.776 1.216-1.493333 1.344-3.477333 1.28-5.376-0.149333-4.8 0.768-9.301333 3.413333-13.418667 1.472-2.304 1.6-5.013333 1.578667-7.68-0.042667-4.970667 0.106667-9.664 3.008-14.208 2.624-3.776 1.472-8.64 1.898667-12.544z" p-id="21346" fill="#409545"></path></svg>